{"title":"The Simpsons Season 27 Complete S27 [720p] ~{KiNg}","uid":14723633,"size":5184833229,"categoryP":"video","categoryS":"hd___tv_shows","magnet":"?xt=urn:btih:9d612237065d6e85c053ca80dd9f99f548f5377c&amp;dn=The+Simpsons+Season+27+Complete+S27+%5B720p%5D+%7E%7BKiNg%7D&amp;tr=udp%3A%2F%2Ftracker.leechers-paradise.org%3A6969&amp;tr=udp%3A%2F%2Fzer0day.ch%3A1337&amp;tr=udp%3A%2F%2Fopen.demonii.com%3A1337&amp;tr=udp%3A%2F%2Ftracker.coppersurfer.tk%3A6969&amp;tr=udp%3A%2F%2Fexodus.desync.com%3A6969","seeders":312,"leechers":84,"uploader":"Uplaoderking","files":22,"time":1464541350,"description":"\nGeneral\r\nFormat : Matroska\r\nFormat version : Version 4 / Version 2\r\nFile size : 225 MiB\r\nDuration : 21mn 22s\r\nOverall bit rate : 1 470 Kbps\r\n\r\nVideo\r\nID : 1\r\nFormat : AVC\r\nFormat/Info : Advanced Video Codec\r\nFormat profile :   \r\nFormat settings, CABAC : Yes\r\nFormat settings, ReFrames : 4 frames\r\nCodec ID : V_MPEG4/ISO/AVC\r\nDuration : 21mn 22s\r\nBit rate : 1 394 Kbps\r\nWidth : 1 280 pixels\r\nHeight : 716 pixels\r\nDisplay aspect ratio : 16:9\r\nFrame rate mode : Constant\r\nFrame rate : 23.976 (24000/1001) fps\r\nColor space : YUV\r\nChroma subsampling : 4:2:0\r\nBit depth : 8 bits\r\nScan type : Progressive\r\nBits/(Pixel*Frame) : 0.063\r\n\r\nAudio\r\nID : 2\r\nFormat : AAC\r\nFormat/Info : Advanced Audio Codec\r\nFormat profile : LC\r\nCodec ID : A_AAC\r\nDuration : 21mn 22s\r\nBit rate : 72.0 Kbps\r\nChannel(s) : 2 channels\r\nChannel positions : Front: L R\r\nSampling rate : 48.0 KHz\r\nFrame rate : 46.875 fps (1024 spf)\r\nCompression mode : Lossy\r\nDelay relative to video : 9ms\r\nStream size : 11.2 MiB (5%)\r\nLanguage : English\r\nDefault : No\r\nForced : No\r\n\r\nText\r\nID : 3\r\nFormat : UTF-8\r\nCodec ID : S_TEXT/UTF8\r\nCodec ID/Info : UTF-8 Plain Text\r\nDuration : 21mn 15s\r\nBit rate : 89 bps\r\nCount of elements : 490\r\nStream size : 13.9 KiB (0%)\r\nTitle : English\r\nLanguage : English\r\nDefault : Yes\r\nForced : No\r\n\r\n\r\nREMEMBER SEED!!!!!!!","torrent":{"xt":"urn:btih:9d612237065d6e85c053ca80dd9f99f548f5377c","amp;dn":"The+Simpsons+Season+27+Complete+S27+%5B720p%5D+%7E%7BKiNg%7D","amp;tr":["udp%3A%2F%2Ftracker.leechers-paradise.org%3A6969","udp%3A%2F%2Fzer0day.ch%3A1337","udp%3A%2F%2Fopen.demonii.com%3A1337","udp%3A%2F%2Ftracker.coppersurfer.tk%3A6969","udp%3A%2F%2Fexodus.desync.com%3A6969"],"infoHash":"9d612237065d6e85c053ca80dd9f99f548f5377c","infoHashBuffer":{"type":"Buffer","data":[157,97,34,55,6,93,110,133,192,83,202,128,221,159,153,245,72,245,55,124]},"announce":[],"urlList":[]}}